<svg width="12" height="12" viewBox="0 0 12 12" fill="none" xmlns="http://www.w3.org/2000/svg">
<path d="M11.8488 11.1405L8.40578 7.69506C9.08454 6.88104 9.49278 5.84077 9.49278 4.70459C9.49278 2.11252 7.36551 0.00492859 4.74885 0.00492859C2.13219 0.00492859 0 2.11498 0 4.70705C0 7.29912 2.12727 9.40671 4.74393 9.40671C5.85552 9.40671 6.87857 9.02552 7.69013 8.38857L11.1454 11.8438C11.3471 12.0455 11.6471 12.0455 11.8488 11.8438C12.0504 11.6422 12.0504 11.3422 11.8488 11.1405ZM1.0083 4.70705C1.0083 2.67078 2.68552 1.01569 4.74393 1.01569C6.80234 1.01569 8.47956 2.67078 8.47956 4.70705C8.47956 6.74332 6.80234 8.39841 4.74393 8.39841C2.68552 8.39841 1.0083 6.74086 1.0083 4.70705Z" fill="black"/>
</svg>
